<svg width="8" height="8" viewBox="0 0 8 8" fill="none" xmlns="http://www.w3.org/2000/svg">
<path d="M7.94583 3.99856C7.94583 6.20718 6.16714 8.00089 3.97292 8.00089C1.7787 8.00089 0 6.20718 0 3.99856C0 1.79041 1.7787 0 3.97292 0C6.16714 0 7.94583 1.79041 7.94583 3.99856ZM1.05391 3.99856C1.05391 5.68418 2.37412 6.99878 3.97292 6.99925C5.5722 6.99878 6.89194 5.68418 6.89194 3.99856C6.89194 2.31342 5.5722 1.00165 3.97292 1.00165C2.37365 1.00165 1.05391 2.31342 1.05391 3.99856ZM4.32706 2.0302C4.97867 2.0302 5.53631 2.53432 5.53206 3.26833C5.53206 3.80408 5.23978 4.21616 4.83182 4.40026L5.75351 5.97164H4.69489L3.94365 4.50646H3.31234V5.97164H2.36987V2.0302H4.32706ZM3.31234 3.73564H4.2619C4.43944 3.73564 4.61839 3.57373 4.61839 3.26691C4.62028 2.96576 4.44085 2.80244 4.2619 2.80244H3.31234V3.73564Z" fill="#333F48"/>
</svg>
