<svg width="32" height="32" viewBox="0 0 32 32" fill="none" xmlns="http://www.w3.org/2000/svg">
<path d="M17.2345 27.5085C20.0427 26.2374 26.6668 22.3111 26.6668 13.5534V8.26255C26.6668 6.77199 26.6668 6.0256 26.3765 5.45573C26.1208 4.95396 25.7118 4.54631 25.21 4.29065C24.6396 4 23.8939 4 22.4004 4H9.60042C8.10695 4 7.35966 4 6.78923 4.29065C6.28746 4.54631 5.87981 4.95396 5.62415 5.45573C5.3335 6.02616 5.3335 6.77345 5.3335 8.26693V13.5534C5.3335 22.3111 11.9572 26.2374 14.7654 27.5085C15.0631 27.6433 15.2127 27.7105 15.5497 27.7684C15.7622 27.8049 16.2394 27.8049 16.452 27.7684C16.7878 27.7107 16.9358 27.6437 17.2315 27.5099L17.2345 27.5085Z" stroke="#333F48" stroke-width="2" stroke-linecap="round" stroke-linejoin="round"/>
</svg>
