<svg width="32" height="32" viewBox="0 0 32 32" fill="none" xmlns="http://www.w3.org/2000/svg">
<path d="M29.9636 15.6245L27.9111 4.62447C27.8609 4.35634 27.7565 4.10131 27.6041 3.87505C27.4517 3.64879 27.2547 3.45609 27.0251 3.3088C26.7955 3.16151 26.5382 3.06275 26.269 3.01858C25.9998 2.97441 25.7245 2.98577 25.4598 3.05197L25.4211 3.06322L18.8561 4.99947H13.1436L6.57859 3.06947L6.53984 3.05822C6.27521 2.99202 5.99984 2.98066 5.73066 3.02483C5.46148 3.069 5.20418 3.16776 4.97458 3.31505C4.74499 3.46234 4.54795 3.65504 4.39558 3.8813C4.24321 4.10756 4.13874 4.36259 4.08859 4.63072L2.03609 15.6245C1.94832 16.0648 2.01347 16.5218 2.22077 16.92C2.42806 17.3183 2.76509 17.6338 3.17609 17.8145C3.4393 17.9352 3.72527 17.9983 4.01484 17.9995C4.36143 17.9993 4.70161 17.9061 4.99984 17.7295V22.9995C4.99984 24.3256 5.52662 25.5973 6.4643 26.535C7.40199 27.4727 8.67376 27.9995 9.99984 27.9995H21.9998C23.3259 27.9995 24.5977 27.4727 25.5354 26.535C26.4731 25.5973 26.9998 24.3256 26.9998 22.9995V17.7307C27.2977 17.907 27.6374 18.0002 27.9836 18.0007C28.2735 17.9999 28.5598 17.9372 28.8236 17.817C29.2351 17.6362 29.5725 17.3203 29.7798 16.9215C29.9871 16.5228 30.052 16.0651 29.9636 15.6245ZM3.99984 15.9995L6.05359 4.99947L11.3123 6.54572L3.99984 15.9995ZM21.9998 25.9995H16.9998V24.4132L18.7073 22.707C18.895 22.5193 19.0004 22.2648 19.0004 21.9995C19.0004 21.7341 18.895 21.4796 18.7073 21.292C18.5197 21.1043 18.2652 20.9989 17.9998 20.9989C17.7345 20.9989 17.48 21.1043 17.2923 21.292L15.9998 22.5857L14.7073 21.292C14.5197 21.1043 14.2652 20.9989 13.9998 20.9989C13.7345 20.9989 13.48 21.1043 13.2923 21.292C13.1047 21.4796 12.9993 21.7341 12.9993 21.9995C12.9993 22.2648 13.1047 22.5193 13.2923 22.707L14.9998 24.4132V25.9995H9.99984C9.20419 25.9995 8.44113 25.6834 7.87852 25.1208C7.31591 24.5582 6.99984 23.7951 6.99984 22.9995V15.3882L13.4898 6.99947H18.5086L24.9998 15.3882V22.9995C24.9998 23.7951 24.6838 24.5582 24.1212 25.1208C23.5585 25.6834 22.7955 25.9995 21.9998 25.9995ZM27.9998 15.9995L20.6873 6.54572L25.9461 4.99947L27.9998 15.9995ZM12.9998 17.4995C12.9998 17.7961 12.9119 18.0862 12.747 18.3328C12.5822 18.5795 12.348 18.7718 12.0739 18.8853C11.7998 18.9988 11.4982 19.0285 11.2072 18.9706C10.9162 18.9128 10.649 18.7699 10.4392 18.5601C10.2294 18.3504 10.0865 18.0831 10.0287 17.7921C9.97078 17.5011 10.0005 17.1995 10.114 16.9254C10.2275 16.6514 10.4198 16.4171 10.6665 16.2523C10.9132 16.0874 11.2032 15.9995 11.4998 15.9995C11.8977 15.9995 12.2792 16.1575 12.5605 16.4388C12.8418 16.7201 12.9998 17.1016 12.9998 17.4995ZM21.9998 17.4995C21.9998 17.7961 21.9119 18.0862 21.747 18.3328C21.5822 18.5795 21.348 18.7718 21.0739 18.8853C20.7998 18.9988 20.4982 19.0285 20.2072 18.9706C19.9162 18.9128 19.649 18.7699 19.4392 18.5601C19.2294 18.3504 19.0865 18.0831 19.0287 17.7921C18.9708 17.5011 19.0005 17.1995 19.114 16.9254C19.2276 16.6514 19.4198 16.4171 19.6665 16.2523C19.9132 16.0874 20.2032 15.9995 20.4998 15.9995C20.8977 15.9995 21.2792 16.1575 21.5605 16.4388C21.8418 16.7201 21.9998 17.1016 21.9998 17.4995Z" fill="white"/>
</svg>
